<?xml version="1.0" encoding="utf-8"?>
<!-- Generator: Adobe Illustrator 18.1.1, SVG Export Plug-In . SVG Version: 6.00 Build 0)  -->
<svg version="1.1" id="Layer_1" xmlns="http://www.w3.org/2000/svg" xmlns:xlink="http://www.w3.org/1999/xlink" x="0px" y="0px"
	 viewBox="637.5 41 1000 1000" enable-background="new 637.5 41 1000 1000" xml:space="preserve">
<g enable-background="new    ">
	<path fill="none" stroke="#000000" stroke-width="8" stroke-linejoin="round" d="M687.1,409.4c-8.1-3.3-14.6-8.3-19.5-14.8
		c-4.9-6.5-7.4-14.4-7.7-23.6h36.4c0.5,5.2,2.3,9.2,5.4,11.9c3.1,2.7,7.1,4.1,12,4.1c5.1,0,9.1-1.2,12-3.5c2.9-2.3,4.4-5.6,4.4-9.7
		c0-3.5-1.2-6.3-3.5-8.6c-2.3-2.3-5.2-4.1-8.6-5.6c-3.4-1.5-8.2-3.1-14.5-5c-9.1-2.8-16.5-5.6-22.2-8.4c-5.7-2.8-10.7-6.9-14.8-12.4
		c-4.1-5.5-6.2-12.6-6.2-21.4c0-13.1,4.7-23.3,14.2-30.7c9.5-7.4,21.8-11.1,37-11.1c15.5,0,27.9,3.7,37.4,11.1
		c9.5,7.4,14.5,17.7,15.2,30.9h-37c-0.3-4.5-1.9-8.1-5-10.7c-3.1-2.6-7-3.9-11.8-3.9c-4.1,0-7.5,1.1-10,3.3
		c-2.5,2.2-3.8,5.4-3.8,9.5c0,4.5,2.1,8.1,6.4,10.6c4.3,2.5,10.9,5.3,20,8.2c9.1,3.1,16.4,6,22.1,8.8c5.7,2.8,10.6,6.9,14.7,12.2
		c4.1,5.3,6.2,12.2,6.2,20.6c0,8-2,15.3-6.1,21.8c-4.1,6.5-10,11.7-17.7,15.6c-7.7,3.9-16.9,5.8-27.4,5.8
		C704.4,414.4,695.2,412.7,687.1,409.4z"/>
	<path fill="none" stroke="#000000" stroke-width="8" stroke-linejoin="round" d="M886.3,312.9c7.7,8.5,11.6,20.1,11.6,34.9V413h-34
		v-60.6c0-7.5-1.9-13.3-5.8-17.4c-3.9-4.1-9.1-6.2-15.6-6.2c-6.5,0-11.7,2.1-15.6,6.2c-3.9,4.1-5.8,9.9-5.8,17.4V413h-34.2V265h34.2
		v51.4c3.5-4.9,8.2-8.9,14.2-11.8c6-2.9,12.7-4.4,20.2-4.4C868.3,300.2,878.6,304.4,886.3,312.9z"/>
	<path fill="none" stroke="#000000" stroke-width="8" stroke-linejoin="round" d="M924.2,284.5c-3.8-3.5-5.7-7.9-5.7-13.1
		c0-5.3,1.9-9.8,5.7-13.3c3.8-3.5,8.7-5.3,14.7-5.3c5.9,0,10.7,1.8,14.5,5.3c3.8,3.5,5.7,8,5.7,13.3c0,5.2-1.9,9.6-5.7,13.1
		c-3.8,3.5-8.6,5.3-14.5,5.3C932.9,289.8,928,288,924.2,284.5z M955.9,301.4V413h-34.2V301.4H955.9z"/>
	<path fill="none" stroke="#000000" stroke-width="8" stroke-linejoin="round" d="M1028.7,304.6c6-3.2,12.9-4.8,20.6-4.8
		c9.2,0,17.5,2.3,25,7c7.5,4.7,13.4,11.3,17.7,20c4.3,8.7,6.5,18.7,6.5,30.2c0,11.5-2.2,21.6-6.5,30.3c-4.3,8.7-10.2,15.5-17.7,20.2
		c-7.5,4.7-15.8,7.1-25,7.1c-7.9,0-14.7-1.6-20.6-4.7c-5.9-3.1-10.5-7.3-13.8-12.5V413h-34.2V265h34.2v52.2
		C1018.1,312,1022.7,307.8,1028.7,304.6z M1056.6,336.9c-4.7-4.9-10.6-7.3-17.5-7.3c-6.8,0-12.6,2.5-17.3,7.4
		c-4.7,4.9-7.1,11.7-7.1,20.2c0,8.5,2.4,15.3,7.1,20.2c4.7,4.9,10.5,7.4,17.3,7.4c6.8,0,12.6-2.5,17.4-7.5c4.8-5,7.2-11.8,7.2-20.3
		C1063.7,348.4,1061.3,341.7,1056.6,336.9z"/>
	<path fill="none" stroke="#000000" stroke-width="8" stroke-linejoin="round" d="M1116.2,326.8c4.3-8.7,10.2-15.3,17.7-20
		c7.5-4.7,15.8-7,25-7c7.9,0,14.8,1.6,20.7,4.8c5.9,3.2,10.5,7.4,13.7,12.6v-15.8h34.2V413h-34.2v-15.8c-3.3,5.2-8,9.4-13.9,12.6
		c-5.9,3.2-12.8,4.8-20.7,4.8c-9.1,0-17.3-2.4-24.8-7.1c-7.5-4.7-13.4-11.5-17.7-20.2c-4.3-8.7-6.5-18.8-6.5-30.3
		C1109.7,345.5,1111.9,335.4,1116.2,326.8z M1186.2,337c-4.7-4.9-10.5-7.4-17.3-7.4c-6.8,0-12.6,2.4-17.3,7.3
		c-4.7,4.9-7.1,11.6-7.1,20.1c0,8.5,2.4,15.3,7.1,20.3c4.7,5,10.5,7.5,17.3,7.5c6.8,0,12.6-2.5,17.3-7.4c4.7-4.9,7.1-11.7,7.1-20.2
		C1193.3,348.6,1190.9,341.9,1186.2,337z"/>
	<path fill="none" stroke="#000000" stroke-width="8" stroke-linejoin="round" d="M1351.6,312.9c7.8,8.5,11.7,20.1,11.7,34.9V413
		h-34v-60.6c0-7.5-1.9-13.3-5.8-17.4c-3.9-4.1-9.1-6.2-15.6-6.2c-6.5,0-11.7,2.1-15.6,6.2c-3.9,4.1-5.8,9.9-5.8,17.4V413h-34.2
		V301.4h34.2v14.8c3.5-4.9,8.1-8.8,14-11.7c5.9-2.9,12.5-4.3,19.8-4.3C1333.4,300.2,1343.8,304.4,1351.6,312.9z"/>
	<path fill="none" stroke="#000000" stroke-width="8" stroke-linejoin="round" d="M1406.5,409.6c-7.6-3.3-13.6-7.9-18-13.7
		c-4.4-5.8-6.9-12.3-7.4-19.5h33.8c0.4,3.9,2.2,7,5.4,9.4c3.2,2.4,7.1,3.6,11.8,3.6c4.3,0,7.6-0.8,9.9-2.5c2.3-1.7,3.5-3.8,3.5-6.5
		c0-3.2-1.7-5.6-5-7.1c-3.3-1.5-8.7-3.2-16.2-5.1c-8-1.9-14.7-3.8-20-5.9c-5.3-2.1-9.9-5.3-13.8-9.8c-3.9-4.5-5.8-10.5-5.8-18.1
		c0-6.4,1.8-12.2,5.3-17.5c3.5-5.3,8.7-9.4,15.6-12.5c6.9-3.1,15-4.6,24.5-4.6c14,0,25,3.5,33.1,10.4c8.1,6.9,12.7,16.1,13.9,27.6
		h-31.6c-0.5-3.9-2.2-6.9-5.1-9.2c-2.9-2.3-6.6-3.4-11.3-3.4c-4,0-7.1,0.8-9.2,2.3c-2.1,1.5-3.2,3.6-3.2,6.3c0,3.2,1.7,5.6,5.1,7.2
		c3.4,1.6,8.7,3.2,15.9,4.8c8.3,2.1,15,4.2,20.2,6.3c5.2,2.1,9.8,5.4,13.7,10c3.9,4.6,6,10.8,6.1,18.5c0,6.5-1.8,12.4-5.5,17.5
		c-3.7,5.1-8.9,9.2-15.8,12.1c-6.9,2.9-14.8,4.4-23.9,4.4C1422.8,414.6,1414.1,412.9,1406.5,409.6z"/>
	<path fill="none" stroke="#000000" stroke-width="8" stroke-linejoin="round" d="M1598.1,312.9c7.7,8.5,11.6,20.1,11.6,34.9V413
		h-34v-60.6c0-7.5-1.9-13.3-5.8-17.4c-3.9-4.1-9.1-6.2-15.6-6.2c-6.5,0-11.7,2.1-15.6,6.2c-3.9,4.1-5.8,9.9-5.8,17.4V413h-34.2V265
		h34.2v51.4c3.5-4.9,8.2-8.9,14.2-11.8c6-2.9,12.7-4.4,20.2-4.4C1580.1,300.2,1590.4,304.4,1598.1,312.9z"/>
	<path fill="none" stroke="#000000" stroke-width="8" stroke-linejoin="round" d="M704.9,707.6c-12.2-5-22-12.4-29.3-22.2
		c-7.3-9.8-11.2-21.6-11.5-35.4h54.6c0.8,7.8,3.5,13.8,8.1,17.8c4.6,4.1,10.6,6.2,18,6.2c7.6,0,13.6-1.7,18-5.3
		c4.4-3.5,6.6-8.3,6.6-14.5c0-5.2-1.8-9.5-5.3-12.9c-3.5-3.4-7.8-6.2-12.9-8.4c-5.1-2.2-12.4-4.7-21.8-7.5
		c-13.6-4.2-24.7-8.4-33.3-12.6c-8.6-4.2-16-10.4-22.2-18.6c-6.2-8.2-9.3-18.9-9.3-32.1c0-19.6,7.1-34.9,21.3-46
		c14.2-11.1,32.7-16.6,55.5-16.6c23.2,0,41.9,5.5,56.1,16.6c14.2,11.1,21.8,26.5,22.8,46.4h-55.5c-0.4-6.8-2.9-12.2-7.5-16.1
		c-4.6-3.9-10.5-5.8-17.7-5.8c-6.2,0-11.2,1.7-15,5c-3.8,3.3-5.7,8.1-5.7,14.3c0,6.8,3.2,12.1,9.6,15.9c6.4,3.8,16.4,7.9,30,12.3
		c13.6,4.6,24.6,9,33.1,13.2c8.5,4.2,15.8,10.3,22,18.3c6.2,8,9.3,18.3,9.3,30.9c0,12-3.1,22.9-9.1,32.7c-6.1,9.8-15,17.6-26.6,23.4
		c-11.6,5.8-25.3,8.7-41.1,8.7C730.9,715.1,717.1,712.6,704.9,707.6z"/>
	<path fill="none" stroke="#000000" stroke-width="8" stroke-linejoin="round" d="M854.1,583.7c6.5-13,15.3-23,26.6-30
		c11.2-7,23.7-10.5,37.5-10.5c11.8,0,22.1,2.4,31,7.2c8.9,4.8,15.8,11.1,20.5,18.9v-23.7h51.3V713h-51.3v-23.7
		c-5,7.8-12,14.1-20.8,18.9c-8.9,4.8-19.3,7.2-31.1,7.2c-13.6,0-26-3.5-37.2-10.7c-11.2-7.1-20.1-17.2-26.6-30.3
		c-6.5-13.1-9.8-28.2-9.8-45.5C844.4,611.8,847.6,596.7,854.1,583.7z M959.1,599c-7.1-7.4-15.8-11.1-25.9-11.1
		c-10.2,0-18.9,3.7-26,10.9c-7.1,7.3-10.6,17.4-10.6,30.2c0,12.8,3.5,23,10.6,30.5c7.1,7.5,15.8,11.3,26,11.3
		c10.2,0,18.8-3.7,25.9-11.1c7.1-7.4,10.6-17.5,10.6-30.3C969.8,616.5,966.2,606.4,959.1,599z"/>
	<path fill="none" stroke="#000000" stroke-width="8" stroke-linejoin="round" d="M1207.4,562.8c11.6,12.7,17.4,30.2,17.4,52.4V713
		h-51v-90.9c0-11.2-2.9-19.9-8.7-26.1c-5.8-6.2-13.6-9.3-23.4-9.3c-9.8,0-17.6,3.1-23.4,9.3c-5.8,6.2-8.7,14.9-8.7,26.1V713h-51.3
		V491h51.3v77.1c5.2-7.4,12.3-13.3,21.3-17.7c9-4.4,19.1-6.6,30.3-6.6C1180.4,543.8,1195.8,550.1,1207.4,562.8z"/>
	<path fill="none" stroke="#000000" stroke-width="8" stroke-linejoin="round" d="M1292.4,704.9c-13.1-7-23.4-17-30.9-30
		c-7.5-13-11.3-28.2-11.3-45.6c0-17.2,3.8-32.3,11.4-45.5c7.6-13.1,18-23.1,31.2-30.1c13.2-7,28-10.5,44.4-10.5
		c16.4,0,31.2,3.5,44.4,10.5c13.2,7,23.6,17.1,31.2,30.1c7.6,13.1,11.4,28.3,11.4,45.5c0,17.2-3.9,32.4-11.6,45.5
		c-7.7,13.1-18.2,23.2-31.5,30.2c-13.3,7-28.2,10.5-44.5,10.5C1320.3,715.4,1305.5,711.9,1292.4,704.9z M1361.7,660.2
		c6.9-7.2,10.4-17.5,10.4-30.9c0-13.4-3.4-23.7-10-30.9c-6.7-7.2-15-10.8-24.8-10.8c-10,0-18.3,3.6-24.9,10.7
		c-6.6,7.1-9.9,17.5-9.9,31c0,13.4,3.2,23.7,9.8,30.9c6.5,7.2,14.6,10.8,24.5,10.8C1346.5,671,1354.8,667.4,1361.7,660.2z"/>
	<path fill="none" stroke="#000000" stroke-width="8" stroke-linejoin="round" d="M1483.5,704.9c-13.1-7-23.4-17-30.9-30
		c-7.5-13-11.3-28.2-11.3-45.6c0-17.2,3.8-32.3,11.4-45.5c7.6-13.1,18-23.1,31.2-30.1c13.2-7,28-10.5,44.4-10.5
		c16.4,0,31.2,3.5,44.4,10.5c13.2,7,23.6,17.1,31.2,30.1c7.6,13.1,11.4,28.3,11.4,45.5c0,17.2-3.9,32.4-11.6,45.5
		c-7.7,13.1-18.2,23.2-31.5,30.2c-13.3,7-28.2,10.5-44.5,10.5C1511.4,715.4,1496.6,711.9,1483.5,704.9z M1552.8,660.2
		c6.9-7.2,10.4-17.5,10.4-30.9c0-13.4-3.4-23.7-10-30.9c-6.7-7.2-15-10.8-24.8-10.8c-10,0-18.3,3.6-24.9,10.7
		c-6.6,7.1-9.9,17.5-9.9,31c0,13.4,3.2,23.7,9.8,30.9c6.5,7.2,14.6,10.8,24.5,10.8C1537.6,671,1545.9,667.4,1552.8,660.2z"/>
</g>
</svg>
