<?xml version="1.0" encoding="utf-8"?>
<!-- Generator: Adobe Illustrator 18.1.1, SVG Export Plug-In . SVG Version: 6.00 Build 0)  -->
<svg version="1.1" id="Layer_1" xmlns="http://www.w3.org/2000/svg" xmlns:xlink="http://www.w3.org/1999/xlink" x="0px" y="0px"
	 viewBox="299 393 1677 296" enable-background="new 299 393 1677 296" xml:space="preserve">
<g enable-background="new    ">
	<path fill="none" stroke="#000000" stroke-width="8" stroke-linejoin="round" d="M342.6,607.4c-8.1-3.3-14.6-8.3-19.5-14.8
		c-4.9-6.5-7.4-14.4-7.7-23.6h36.4c0.5,5.2,2.3,9.2,5.4,11.9c3.1,2.7,7.1,4.1,12,4.1c5.1,0,9.1-1.2,12-3.5c2.9-2.3,4.4-5.6,4.4-9.7
		c0-3.5-1.2-6.3-3.5-8.6c-2.3-2.3-5.2-4.1-8.6-5.6c-3.4-1.5-8.2-3.1-14.5-5c-9.1-2.8-16.5-5.6-22.2-8.4c-5.7-2.8-10.7-6.9-14.8-12.4
		c-4.1-5.5-6.2-12.6-6.2-21.4c0-13.1,4.7-23.3,14.2-30.7c9.5-7.4,21.8-11.1,37-11.1c15.5,0,27.9,3.7,37.4,11.1
		c9.5,7.4,14.5,17.7,15.2,30.9h-37c-0.3-4.5-1.9-8.1-5-10.7c-3.1-2.6-7-3.9-11.8-3.9c-4.1,0-7.5,1.1-10,3.3
		c-2.5,2.2-3.8,5.4-3.8,9.5c0,4.5,2.1,8.1,6.4,10.6c4.3,2.5,10.9,5.3,20,8.2c9.1,3.1,16.4,6,22.1,8.8c5.7,2.8,10.6,6.9,14.7,12.2
		c4.1,5.3,6.2,12.2,6.2,20.6c0,8-2,15.3-6.1,21.8c-4.1,6.5-10,11.7-17.7,15.6c-7.7,3.9-16.9,5.8-27.4,5.8
		C359.9,612.4,350.7,610.7,342.6,607.4z"/>
	<path fill="none" stroke="#000000" stroke-width="8" stroke-linejoin="round" d="M541.8,510.9c7.7,8.5,11.6,20.1,11.6,34.9V611h-34
		v-60.6c0-7.5-1.9-13.3-5.8-17.4c-3.9-4.1-9.1-6.2-15.6-6.2c-6.5,0-11.7,2.1-15.6,6.2c-3.9,4.1-5.8,9.9-5.8,17.4V611h-34.2V463h34.2
		v51.4c3.5-4.9,8.2-8.9,14.2-11.8c6-2.9,12.7-4.4,20.2-4.4C523.8,498.2,534.1,502.4,541.8,510.9z"/>
	<path fill="none" stroke="#000000" stroke-width="8" stroke-linejoin="round" d="M579.7,482.5c-3.8-3.5-5.7-7.9-5.7-13.1
		c0-5.3,1.9-9.8,5.7-13.3c3.8-3.5,8.7-5.3,14.7-5.3c5.9,0,10.7,1.8,14.5,5.3c3.8,3.5,5.7,8,5.7,13.3c0,5.2-1.9,9.6-5.7,13.1
		c-3.8,3.5-8.6,5.3-14.5,5.3C588.4,487.8,583.5,486,579.7,482.5z M611.4,499.4V611h-34.2V499.4H611.4z"/>
	<path fill="none" stroke="#000000" stroke-width="8" stroke-linejoin="round" d="M684.2,502.6c6-3.2,12.9-4.8,20.6-4.8
		c9.2,0,17.5,2.3,25,7c7.5,4.7,13.4,11.3,17.7,20c4.3,8.7,6.5,18.7,6.5,30.2c0,11.5-2.2,21.6-6.5,30.3c-4.3,8.7-10.2,15.5-17.7,20.2
		c-7.5,4.7-15.8,7.1-25,7.1c-7.9,0-14.7-1.6-20.6-4.7c-5.9-3.1-10.5-7.3-13.8-12.5V611h-34.2V463h34.2v52.2
		C673.6,510,678.2,505.8,684.2,502.6z M712.1,534.9c-4.7-4.9-10.6-7.3-17.5-7.3c-6.8,0-12.6,2.5-17.3,7.4
		c-4.7,4.9-7.1,11.7-7.1,20.2c0,8.5,2.4,15.3,7.1,20.2c4.7,4.9,10.5,7.4,17.3,7.4c6.8,0,12.6-2.5,17.4-7.5c4.8-5,7.2-11.8,7.2-20.3
		C719.2,546.5,716.8,539.8,712.1,534.9z"/>
	<path fill="none" stroke="#000000" stroke-width="8" stroke-linejoin="round" d="M771.7,524.8c4.3-8.7,10.2-15.3,17.7-20
		c7.5-4.7,15.8-7,25-7c7.9,0,14.8,1.6,20.7,4.8c5.9,3.2,10.5,7.4,13.7,12.6v-15.8H883V611h-34.2v-15.8c-3.3,5.2-8,9.4-13.9,12.6
		c-5.9,3.2-12.8,4.8-20.7,4.8c-9.1,0-17.3-2.4-24.8-7.1c-7.5-4.7-13.4-11.5-17.7-20.2c-4.3-8.7-6.5-18.8-6.5-30.3
		C765.2,543.5,767.4,533.5,771.7,524.8z M841.7,535c-4.7-4.9-10.5-7.4-17.3-7.4c-6.8,0-12.6,2.4-17.3,7.3
		c-4.7,4.9-7.1,11.6-7.1,20.1c0,8.5,2.4,15.3,7.1,20.3c4.7,5,10.5,7.5,17.3,7.5c6.8,0,12.6-2.5,17.3-7.4c4.7-4.9,7.1-11.7,7.1-20.2
		C848.8,546.7,846.4,539.9,841.7,535z"/>
	<path fill="none" stroke="#000000" stroke-width="8" stroke-linejoin="round" d="M1007.1,510.9c7.8,8.5,11.7,20.1,11.7,34.9V611
		h-34v-60.6c0-7.5-1.9-13.3-5.8-17.4c-3.9-4.1-9.1-6.2-15.6-6.2c-6.5,0-11.7,2.1-15.6,6.2c-3.9,4.1-5.8,9.9-5.8,17.4V611h-34.2
		V499.4H942v14.8c3.5-4.9,8.1-8.8,14-11.7c5.9-2.9,12.5-4.3,19.8-4.3C988.9,498.2,999.3,502.4,1007.1,510.9z"/>
	<path fill="none" stroke="#000000" stroke-width="8" stroke-linejoin="round" d="M1062,607.6c-7.6-3.3-13.6-7.9-18-13.7
		c-4.4-5.8-6.9-12.3-7.4-19.5h33.8c0.4,3.9,2.2,7,5.4,9.4c3.2,2.4,7.1,3.6,11.8,3.6c4.3,0,7.6-0.8,9.9-2.5c2.3-1.7,3.5-3.8,3.5-6.5
		c0-3.2-1.7-5.6-5-7.1c-3.3-1.5-8.7-3.2-16.2-5.1c-8-1.9-14.7-3.8-20-5.9c-5.3-2.1-9.9-5.3-13.8-9.8c-3.9-4.5-5.8-10.5-5.8-18.1
		c0-6.4,1.8-12.2,5.3-17.5c3.5-5.3,8.7-9.4,15.6-12.5c6.9-3.1,15-4.6,24.5-4.6c14,0,25,3.5,33.1,10.4c8.1,6.9,12.7,16.1,13.9,27.6
		H1101c-0.5-3.9-2.2-6.9-5.1-9.2c-2.9-2.3-6.6-3.4-11.3-3.4c-4,0-7.1,0.8-9.2,2.3c-2.1,1.5-3.2,3.6-3.2,6.3c0,3.2,1.7,5.6,5.1,7.2
		c3.4,1.6,8.7,3.2,15.9,4.8c8.3,2.1,15,4.2,20.2,6.3c5.2,2.1,9.8,5.4,13.7,10c3.9,4.6,6,10.8,6.1,18.5c0,6.5-1.8,12.4-5.5,17.5
		c-3.7,5.1-8.9,9.2-15.8,12.1c-6.9,2.9-14.8,4.4-23.9,4.4C1078.3,612.6,1069.6,610.9,1062,607.6z"/>
	<path fill="none" stroke="#000000" stroke-width="8" stroke-linejoin="round" d="M1253.6,510.9c7.7,8.5,11.6,20.1,11.6,34.9V611
		h-34v-60.6c0-7.5-1.9-13.3-5.8-17.4c-3.9-4.1-9.1-6.2-15.6-6.2c-6.5,0-11.7,2.1-15.6,6.2c-3.9,4.1-5.8,9.9-5.8,17.4V611h-34.2V463
		h34.2v51.4c3.5-4.9,8.2-8.9,14.2-11.8c6-2.9,12.7-4.4,20.2-4.4C1235.6,498.2,1245.9,502.4,1253.6,510.9z"/>
	<path fill="none" stroke="#000000" stroke-width="8" stroke-linejoin="round" d="M1354.6,607.4c-8.1-3.3-14.6-8.3-19.5-14.8
		c-4.9-6.5-7.4-14.4-7.7-23.6h36.4c0.5,5.2,2.3,9.2,5.4,11.9c3.1,2.7,7.1,4.1,12,4.1c5.1,0,9.1-1.2,12-3.5c2.9-2.3,4.4-5.6,4.4-9.7
		c0-3.5-1.2-6.3-3.5-8.6c-2.3-2.3-5.2-4.1-8.6-5.6c-3.4-1.5-8.2-3.1-14.5-5c-9.1-2.8-16.5-5.6-22.2-8.4c-5.7-2.8-10.7-6.9-14.8-12.4
		c-4.1-5.5-6.2-12.6-6.2-21.4c0-13.1,4.7-23.3,14.2-30.7c9.5-7.4,21.8-11.1,37-11.1c15.5,0,27.9,3.7,37.4,11.1
		c9.5,7.4,14.5,17.7,15.2,30.9h-37c-0.3-4.5-1.9-8.1-5-10.7c-3.1-2.6-7-3.9-11.8-3.9c-4.1,0-7.5,1.1-10,3.3
		c-2.5,2.2-3.8,5.4-3.8,9.5c0,4.5,2.1,8.1,6.4,10.6c4.3,2.5,10.9,5.3,20,8.2c9.1,3.1,16.4,6,22.1,8.8c5.7,2.8,10.6,6.9,14.7,12.2
		c4.1,5.3,6.2,12.2,6.2,20.6c0,8-2,15.3-6.1,21.8c-4.1,6.5-10,11.7-17.7,15.6c-7.7,3.9-16.9,5.8-27.4,5.8
		C1371.9,612.4,1362.7,610.7,1354.6,607.4z"/>
	<path fill="none" stroke="#000000" stroke-width="8" stroke-linejoin="round" d="M1454.1,524.8c4.3-8.7,10.2-15.3,17.7-20
		c7.5-4.7,15.8-7,25-7c7.9,0,14.8,1.6,20.7,4.8c5.9,3.2,10.5,7.4,13.7,12.6v-15.8h34.2V611h-34.2v-15.8c-3.3,5.2-8,9.4-13.9,12.6
		c-5.9,3.2-12.8,4.8-20.7,4.8c-9.1,0-17.3-2.4-24.8-7.1c-7.5-4.7-13.4-11.5-17.7-20.2c-4.3-8.7-6.5-18.8-6.5-30.3
		C1447.6,543.5,1449.8,533.5,1454.1,524.8z M1524.1,535c-4.7-4.9-10.5-7.4-17.3-7.4s-12.6,2.4-17.3,7.3c-4.7,4.9-7.1,11.6-7.1,20.1
		c0,8.5,2.4,15.3,7.1,20.3c4.7,5,10.5,7.5,17.3,7.5s12.6-2.5,17.3-7.4c4.7-4.9,7.1-11.7,7.1-20.2
		C1531.2,546.7,1528.8,539.9,1524.1,535z"/>
	<path fill="none" stroke="#000000" stroke-width="8" stroke-linejoin="round" d="M1689.6,510.9c7.7,8.5,11.6,20.1,11.6,34.9V611
		h-34v-60.6c0-7.5-1.9-13.3-5.8-17.4c-3.9-4.1-9.1-6.2-15.6-6.2c-6.5,0-11.7,2.1-15.6,6.2c-3.9,4.1-5.8,9.9-5.8,17.4V611h-34.2V463
		h34.2v51.4c3.5-4.9,8.2-8.9,14.2-11.8c6-2.9,12.7-4.4,20.2-4.4C1671.6,498.2,1681.8,502.4,1689.6,510.9z"/>
	<path fill="none" stroke="#000000" stroke-width="8" stroke-linejoin="round" d="M1746.3,605.6c-8.7-4.7-15.6-11.3-20.6-20
		c-5-8.7-7.5-18.8-7.5-30.4c0-11.5,2.5-21.6,7.6-30.3c5.1-8.7,12-15.4,20.8-20.1c8.8-4.7,18.7-7,29.6-7c10.9,0,20.8,2.3,29.6,7
		c8.8,4.7,15.7,11.4,20.8,20.1c5.1,8.7,7.6,18.8,7.6,30.3c0,11.5-2.6,21.6-7.7,30.3c-5.1,8.7-12.1,15.4-21,20.1
		c-8.9,4.7-18.8,7-29.7,7C1764.8,612.6,1755,610.3,1746.3,605.6z M1792.5,575.8c4.6-4.8,6.9-11.7,6.9-20.6c0-8.9-2.2-15.8-6.7-20.6
		c-4.5-4.8-10-7.2-16.5-7.2c-6.7,0-12.2,2.4-16.6,7.1c-4.4,4.7-6.6,11.6-6.6,20.7c0,8.9,2.2,15.8,6.5,20.6c4.3,4.8,9.8,7.2,16.3,7.2
		C1782.3,583,1787.9,580.6,1792.5,575.8z"/>
	<path fill="none" stroke="#000000" stroke-width="8" stroke-linejoin="round" d="M1873.7,605.6c-8.7-4.7-15.6-11.3-20.6-20
		c-5-8.7-7.5-18.8-7.5-30.4c0-11.5,2.5-21.6,7.6-30.3c5.1-8.7,12-15.4,20.8-20.1c8.8-4.7,18.7-7,29.6-7c10.9,0,20.8,2.3,29.6,7
		c8.8,4.7,15.7,11.4,20.8,20.1c5.1,8.7,7.6,18.8,7.6,30.3c0,11.5-2.6,21.6-7.7,30.3c-5.1,8.7-12.1,15.4-21,20.1
		c-8.9,4.7-18.8,7-29.7,7C1892.2,612.6,1882.4,610.3,1873.7,605.6z M1919.9,575.8c4.6-4.8,6.9-11.7,6.9-20.6
		c0-8.9-2.2-15.8-6.7-20.6c-4.5-4.8-10-7.2-16.5-7.2c-6.7,0-12.2,2.4-16.6,7.1c-4.4,4.7-6.6,11.6-6.6,20.7c0,8.9,2.2,15.8,6.5,20.6
		c4.3,4.8,9.8,7.2,16.3,7.2C1909.7,583,1915.3,580.6,1919.9,575.8z"/>
</g>
</svg>
