<?xml version="1.0" encoding="utf-8"?>
<!-- Generator: Adobe Illustrator 18.1.1, SVG Export Plug-In . SVG Version: 6.00 Build 0)  -->
<svg version="1.1" id="Layer_1" xmlns="http://www.w3.org/2000/svg" xmlns:xlink="http://www.w3.org/1999/xlink" x="0px" y="0px"
	 viewBox="0 0 1080 1080" enable-background="new 0 0 1080 1080" xml:space="preserve">
<g id="Rays">
	<polygon fill="#FFFFFF" points="482.9,231.5 540,31 597.1,231.5 	"/>
	<polygon fill="#FFFFFF" points="645.9,244.6 796.1,100.2 744.6,302.1 	"/>
	<polygon fill="#FFFFFF" points="780.1,338 982.6,288.7 836.5,437.4 	"/>
	<polygon fill="#FFFFFF" points="849.1,486.3 1048.9,545.6 847.9,600.5 	"/>
	<polygon fill="#FFFFFF" points="834.2,649.1 977,800.9 775.6,747.2 	"/>
	<polygon fill="#FFFFFF" points="739.3,782.3 786.4,985.3 639.4,837.6 	"/>
	<polygon fill="#FFFFFF" points="590.3,849.7 528.8,1048.8 476.1,847.2 	"/>
	<polygon fill="#FFFFFF" points="427.7,833 274.3,974.1 330.2,773.4 	"/>
	<polygon fill="#FFFFFF" points="295.5,736.7 92,781.5 241.3,636.1 	"/>
	<polygon fill="#FFFFFF" points="229.8,586.9 31.3,523.3 233.5,472.8 	"/>
	<polygon fill="#FFFFFF" points="248.3,424.5 108.8,269.6 309,327.7 	"/>
	<polygon fill="#FFFFFF" points="346,293.4 303.4,89.4 447.2,240.3 	"/>
</g>
<circle id="Circle" fill="#FFFFFF" stroke="#000000" stroke-width="100" stroke-miterlimit="10" cx="540" cy="540" r="299.8"/>
</svg>
