<?xml version="1.0" encoding="utf-8"?>
<!-- Generator: Adobe Illustrator 18.1.1, SVG Export Plug-In . SVG Version: 6.00 Build 0)  -->
<svg version="1.1" id="Layer_1" xmlns="http://www.w3.org/2000/svg" xmlns:xlink="http://www.w3.org/1999/xlink" x="0px" y="0px"
	 viewBox="0 0 1080 1080" enable-background="new 0 0 1080 1080" xml:space="preserve">
<image display="none" overflow="visible" enable-background="new    " width="481" height="375" xlink:href="99F9CA07.jpeg"  transform="matrix(2.2497 0 0 2.2464 0 138.297)">
</image>
<g>
	<g>
		<path d="M340.8,436.8c0,0,0.7-2.2,2-6.1c1.3-3.9,3.3-9.4,6-15.9c1.3-3.2,2.8-6.8,4.4-10.4c1.6-3.7,3.3-7.6,5.2-11.5
			c0.9-2,1.9-4,2.9-6s2.1-4.1,3.1-6.1c2.1-4.1,4.3-8.2,6.6-12.3l1.7-3.1l1.8-3c1.2-2,2.4-4,3.6-6c1.2-2,2.4-3.9,3.7-5.8
			c1.2-1.9,2.4-3.8,3.6-5.6c2.5-3.6,5-7.1,7.3-10.4c2.5-3.2,4.9-6.2,7.1-8.9c2.3-2.7,4.5-5,6.4-7.2s3.8-3.8,5.2-5.2
			c3-2.8,4.7-4.4,4.7-4.4s-1.4,1.9-4,5c-1.3,1.6-2.9,3.5-4.5,5.8c-0.8,1.1-1.7,2.4-2.7,3.6c-0.9,1.3-2,2.6-2.9,4
			c-1.9,2.9-4,6-6.3,9.3c-2.1,3.4-4.4,6.9-6.7,10.6c-2.2,3.7-4.5,7.6-6.9,11.5c-1.1,2-2.3,4-3.4,6l-1.7,3l-1.7,3.1
			c-2.3,4.1-4.5,8.1-6.7,12.2c-1.1,2-2.2,4-3.2,6s-2.1,3.9-3.1,5.9c-2,3.9-4,7.6-5.8,11.1c-1.8,3.6-3.6,6.9-5.2,10
			C345,428.5,340.8,436.8,340.8,436.8z"/>
	</g>
	<g>
		<path d="M277.4,367.5c14.2-5.4,28.6-10.4,43-15.3c3.6-1.2,7.2-2.4,10.8-3.6s7.2-2.3,10.9-3.5c3.6-1.2,7.2-2.3,10.9-3.4
			c3.6-1.1,7.3-2.3,10.9-3.3l10.9-3.2c3.6-1.1,7.3-2.1,11-3.1l5.5-1.5l5.5-1.5c3.7-1,7.3-2,11-2.9l11.1-2.7
			c3.7-0.9,7.4-1.7,11.1-2.6c3.7-0.8,7.4-1.7,11.2-2.4l11.2-2.3l5.5-1.1l-3.6,4.4c-3.5,4.3-7,8.7-10.5,13
			c-3.4,4.4-6.9,8.8-10.2,13.3c-1.7,2.2-3.4,4.5-5,6.7c-1.7,2.2-3.3,4.5-5,6.7c-3.3,4.5-6.5,9.1-9.7,13.6c-1.6,2.3-3.2,4.6-4.8,6.9
			l-2.4,3.4l-2.3,3.5c-1.5,2.3-3.1,4.6-4.6,7l-4.5,7c-1.5,2.3-2.9,4.7-4.4,7.1l-2.2,3.6l-2.1,3.6l-2.1,3.6c-0.7,1.2-1.4,2.4-2,3.6
			l-3.9,7.3l-3.7-2.6l0,0c4.8-5,9.7-9.8,14.7-14.6c2.5-2.4,5-4.7,7.6-7.1c2.5-2.3,5.1-4.6,7.7-6.9s5.2-4.5,7.9-6.8
			c2.7-2.2,5.4-4.4,8.2-6.5c2.8-2.1,5.6-4.1,8.6-6s6-3.7,9.5-5.1c0.9-0.3,1.8-0.6,2.8-0.8c1-0.2,2.1-0.3,3.3-0.2
			c0.3,0,0.6,0.1,0.9,0.2c0.3,0.1,0.6,0.2,1,0.4l0.2,0.1h0.1l0.2,0.1h0.1l0.3,0.2l0.1,0.1l0.2,0.2c0.1,0.1,0.3,0.3,0.4,0.4
			c0.9,1,1.4,2.2,1.6,3.2c0.4,2.1,0.2,4.1-0.1,5.9c-0.3,1.8-0.8,3.6-1.3,5.3c-1.1,3.4-2.4,6.6-3.9,9.8c-1.5,3.2-3,6.2-4.7,9.3
			c-3.3,6.1-6.9,12-10.6,17.8c-1.9,2.9-3.8,5.8-5.8,8.6c-0.9,1.4-1.7,2.9-2.1,4.6c-0.2,0.8-0.3,1.7,0,2.4c0.3,0.8,1,1.3,1.8,1.6
			c-0.4-0.1-0.8-0.2-1.2-0.5c-0.4-0.2-0.7-0.6-0.9-1c-0.4-0.8-0.4-1.8-0.3-2.6c0.3-1.8,1-3.4,1.8-4.9c1.8-3,3.4-6,5.1-9
			c3.3-6,6.5-12.1,9.5-18.2c1.5-3.1,2.9-6.2,4.2-9.3c1.3-3.1,2.5-6.3,3.4-9.5c0.5-1.6,0.8-3.2,1-4.8c0.2-1.6,0.3-3.1,0-4.4
			c-0.1-0.6-0.4-1.1-0.7-1.3l0,0l0,0l-0.1-0.1l-0.3-0.2H445c0,0-0.2-0.1,0.1,0.1l0,0H445c-0.1-0.1-0.3-0.1-0.6-0.1
			c-0.5-0.1-1.1,0-1.8,0.2s-1.4,0.4-2.1,0.7c-2.9,1.2-5.8,3-8.6,4.8c-2.8,1.9-5.5,3.9-8.2,6c-2.7,2.1-5.3,4.3-7.9,6.5
			c-2.6,2.2-5.2,4.4-7.8,6.7c-2.6,2.3-5.1,4.6-7.6,6.9l-7.5,7c-2.5,2.3-5,4.7-7.5,7.1l-7.4,7.2l0,0l-9.9,10.6l6.6-13.4l3.7-7.6
			c0.6-1.3,1.3-2.5,2-3.7l2-3.7l2-3.7l2.2-3.6c1.5-2.4,2.8-4.9,4.4-7.2l4.5-7.1c1.5-2.4,3.1-4.7,4.7-7l2.4-3.5l2.4-3.5
			c1.6-2.3,3.2-4.6,4.8-6.9l4.9-6.8l5-6.7c1.7-2.3,3.4-4.5,5.1-6.7s3.4-4.4,5.2-6.6c3.5-4.4,6.9-8.8,10.5-13.2
			c3.5-4.4,7.1-8.7,10.8-13l1.9,3.3l-11.2,2.1c-3.7,0.6-7.4,1.5-11.1,2.2c-3.7,0.8-7.4,1.5-11.1,2.4l-11.1,2.5
			c-3.7,0.9-7.4,1.8-11.1,2.7l-5.5,1.3l-5.5,1.4c-3.7,1-7.4,1.9-11,2.9l-11,3c-3.7,1-7.3,2.1-11,3.1c-3.7,1-7.3,2.1-10.9,3.2
			l-10.9,3.2c-3.6,1.1-7.3,2.2-10.9,3.3C306.3,357.9,291.8,362.5,277.4,367.5z"/>
	</g>
	<g>
		<path d="M519.4,380.7c0,0,0.3-0.7,0.5-2.2c0.2-1.4,0.6-3.6-0.2-6.1c-0.4-1.2-1.2-2.4-2.5-3c-1.3-0.7-2.9-1-4.7-1
			c-1.8,0-3.7,0.3-5.7,0.8s-4.1,1.1-6.2,1.9c-0.5,0.2-1.1,0.4-1.6,0.6l-0.4,0.1l-0.4,0.2l-0.8,0.4c-1.2,0.5-2.1,1-3.2,1.6
			c-2.1,1.2-4.1,2.6-6,4.3c-3.8,3.4-7,7.8-9.5,12.7c-2.5,5-4.3,10.6-5.7,16.3c-0.7,2.9-1.2,5.8-1.5,8.8c-0.2,1.5-0.3,3-0.4,4.5
			c-0.1,0.8-0.1,1.5-0.1,2.3v0.6v0.5c0,0.2,0,0.5,0.1,0.8c0.1,0.5,0.2,1.1,0.4,1.6c0.1,0.2,0.2,0.5,0.4,0.7c0.1,0.1,0.1,0.2,0.2,0.3
			l0.1,0.1l0,0c0.1,0.1-0.1-0.1-0.1-0.1l0.1,0.1l0.4,0.4l0.1,0.1h0.1l0.1,0.1c0.1,0.1,0.1,0.1,0.2,0.2l0.3,0.2
			c0.4,0.2,0.9,0.4,1.4,0.5c1,0.2,2.2,0,3.4-0.3c1.2-0.4,2.5-1,3.7-1.7c2.4-1.4,4.7-3.2,6.9-5c0.5-0.5,1.1-0.9,1.6-1.4
			s1.1-1,1.6-1.5c1.1-1,2.1-2,3.1-3c2-2,3.9-4.2,5.9-6.2c1.9-2,3.8-4,5.6-6c3.6-3.9,7-7.6,10.2-11c6.3-6.9,11.4-12.6,15-16.7
			c1.8-2,3.2-3.6,4.2-4.7s1.5-1.7,1.5-1.7s-0.4,0.6-1.2,1.9c-0.8,1.2-2,3-3.6,5.2c-1.6,2.2-3.5,4.9-5.8,7.9c-2.3,3-4.9,6.4-7.8,10
			c-2.9,3.6-6.1,7.6-9.6,11.6c-1.7,2-3.5,4.1-5.3,6.3c-0.9,1.1-1.9,2.1-2.8,3.2c-0.5,0.5-0.9,1.1-1.4,1.6s-1,1.1-1.5,1.6
			c-1,1.1-2,2.2-3.1,3.2c-0.5,0.5-1.1,1.1-1.6,1.6c-0.6,0.5-1.1,1-1.7,1.6c-1.1,1.1-2.4,2-3.6,3c-1.3,0.9-2.6,1.9-4,2.7
			s-3,1.6-4.6,2.1c-1.7,0.5-3.6,0.9-5.7,0.5c-1-0.2-2.1-0.5-3-1c-0.9-0.4-2-1.5-2.4-1.9l-0.1-0.1l-0.2-0.2l-0.1-0.1l-0.2-0.3
			c-0.2-0.2-0.3-0.4-0.4-0.6c-0.3-0.4-0.5-0.9-0.7-1.4c-0.4-0.9-0.7-1.9-0.8-2.9c-0.1-0.5-0.1-1-0.1-1.5v-0.6v-0.6
			c0-0.8,0.1-1.6,0.2-2.4c0.1-1.6,0.3-3.2,0.5-4.7c0.4-3.1,1-6.2,1.7-9.3c1.4-6.1,3.6-12,6.5-17.3s6.6-10,11-13.5
			c2.2-1.8,4.5-3.2,6.8-4.4c1.2-0.5,2.4-1.1,3.6-1.5l0.8-0.3l0.4-0.2l0.5-0.2c0.6-0.2,1.2-0.3,1.7-0.5c2.3-0.7,4.5-1.2,6.6-1.5
			c2.2-0.3,4.2-0.5,6.2-0.4c2,0.1,3.9,0.6,5.4,1.7c1.5,1,2.4,2.6,2.7,4s0.2,2.7,0.1,3.7c-0.2,1.1-0.4,1.9-0.6,2.6
			C519.8,380,519.4,380.7,519.4,380.7z"/>
	</g>
	<g>
		<path d="M515.8,386.5c-2.1,5.8-4.2,11.5-5.9,17.4c-0.8,2.9-1.6,5.9-2.1,8.8s-0.8,5.9-0.4,8.7s1.7,5.2,4.2,6l0.2,0.1l0,0
			c0,0-0.2,0-0.1,0h0.1h0.1c0.2,0,0.4,0.1,0.5,0.1c0.3,0,0.5,0.1,0.8,0c0.6,0,1.3-0.1,2-0.2c1.4-0.3,2.8-0.8,4.2-1.3
			c2.8-1.1,5.4-2.5,8.1-3.9c2.6-1.5,5.2-3.1,7.8-4.7c10.2-6.6,20.1-13.9,29.7-21.4c4.8-3.8,9.6-7.6,14.4-11.4
			c4.8-3.9,9.5-7.8,14.2-11.7l2.2,2.3l0,0c-1.7,1.9-3.4,3.8-5,5.7c-1.6,1.9-3.3,3.9-4.8,5.9c-3.2,4-6.2,8.1-8.9,12.3
			c-1.4,2.1-2.7,4.3-3.8,6.5c-1.2,2.2-2.2,4.5-3,6.7c-0.8,2.3-1.2,4.6-1,6.7c0.1,1,0.5,1.9,1,2.6c0.3,0.3,0.6,0.7,1,0.9l0.1,0.1l0,0
			l0,0c0,0,0.1,0.1-0.1,0l0.2,0.1l0.4,0.3c0.2,0.1,0.3,0.2,0.5,0.3c1.7,0.7,4,0.6,6.2,0c2.2-0.6,4.5-1.6,6.6-2.8
			c4.3-2.3,8.4-5.3,12.4-8.5c3.9-3.2,7.7-6.6,11.4-10.1c1.8-1.8,3.7-3.5,5.4-5.4c1.8-1.8,3.6-3.7,5.2-5.5l3.7,3
			c-1.8,2.6-3.5,5.4-5,8.2c-1.5,2.8-2.8,5.8-3.7,8.7c-0.4,1.5-0.7,3-0.8,4.3c-0.1,1.4,0.1,2.7,0.6,3.6c0.5,1,1.3,1.7,2.4,2.2
			l0.2,0.1l0.1,0.1c0.3,0.1-0.3-0.1-0.2-0.1h0.1l0.3,0.1h0.2l0,0l0,0l0,0c0,0,0,0,0.1,0h0.3c0.5-0.1,1.2-0.3,1.9-0.6
			c2.7-1.2,5.4-3,8.1-4.9c2.6-1.9,5.2-3.9,7.8-6c5.1-4.2,10.1-8.6,14.9-13.1c9.8-9,19.3-18.3,28.7-27.7c9.4-9.4,18.8-18.9,28-28.5
			l13.8-14.5l3.4-3.6c0.5-0.6,0.7-0.9,1-1.4c0.2-0.5,0.3-1,0.3-1.5c0-1-0.4-2.1-1.2-3c-0.8-0.9-1.8-1.5-2.9-1.6
			c-1-0.1-2.1,0.1-3,0.8c-0.1,0.1-0.2,0.2-0.3,0.3c0,0-0.2,0.1-0.1,0.1l-0.2,0.4l-0.9,0.9c-0.6,0.6-1.2,1.2-1.7,1.8l-1.6,1.8
			l-1.5,1.9c-1,1.2-2,2.6-3,3.9c-3.8,5.3-7.3,11-10.5,16.7c-3.3,5.7-6.3,11.7-9.2,17.6c-2.9,6-5.7,12-8.3,18.1
			c-1.3,3-2.7,6.1-3.9,9.2c-1.3,3.1-2.6,6.1-3.8,9.2c-2.5,6.2-4.9,12.4-7.3,18.6l-3-1.5c1.8-2.8,3.6-5.5,5.5-8.2s3.8-5.3,5.8-7.9
			c3.9-5.2,8-10.3,12.4-15.3c4.3-4.9,8.9-9.6,13.9-13.9c1.3-1.1,2.5-2.1,3.9-3.1c1.3-1,2.7-1.9,4.1-2.9c0.7-0.4,1.4-0.9,2.1-1.3
			l2.2-1.2l2.3-1.1l2.4-0.9l5.3-2l-4.3,3.7l0,0c-1.5,1.4-2.9,2.8-4.4,4.2c-1.4,1.4-2.9,2.9-4.3,4.4s-2.8,3-4.1,4.5
			c-1.4,1.5-2.7,3.1-3.9,4.6c-2.5,3.2-4.9,6.4-7,9.9c-2,3.4-3.8,7.1-4.5,11c-0.2,1-0.2,1.9-0.2,2.9s0.2,1.9,0.4,2.8
			c0.3,0.9,0.7,1.8,1.2,2.6s1.2,1.5,1.9,2.2c1.4,1.3,3.2,2.3,5,3c0.5,0.2,0.9,0.4,1.4,0.5l0.3,0.1l0.4,0.1l0.7,0.2l1.5,0.3
			c0.5,0.1,1,0.1,1.5,0.1c1.9,0.2,4-0.1,5.9-0.6c1.9-0.6,3.8-1.4,5.4-2.5c1.7-1.1,3.3-2.4,4.7-3.9s2.7-3.1,3.7-4.8
			c-1,1.8-2.2,3.5-3.5,5c-1.3,1.6-2.9,2.9-4.5,4.2c-1.7,1.2-3.6,2.1-5.5,2.9c-2,0.6-4.1,1-6.2,0.8c-0.5,0-1.1,0-1.6-0.1l-1.5-0.3
			l-0.8-0.1l-0.4-0.1l0,0h-0.1l0,0h-0.1l-0.2-0.1c-0.5-0.2-1-0.3-1.5-0.5c-2-0.7-3.9-1.7-5.5-3.1c-0.8-0.7-1.6-1.5-2.2-2.4
			c-0.6-0.9-1.1-1.9-1.4-2.9s-0.5-2.1-0.6-3.2c0-1.1,0-2.2,0.1-3.2c0.6-4.3,2.4-8.1,4.4-11.8c2-3.6,4.4-7,7-10.3
			c1.3-1.6,2.6-3.2,4-4.8c1.4-1.6,2.8-3.1,4.2-4.5c1.4-1.5,2.9-2.9,4.4-4.3s3-2.8,4.6-4.1l0,0l1,1.7l-2.2,0.9l-2.1,1l-2.1,1.2
			c-0.7,0.4-1.3,0.9-2,1.3c-1.3,0.9-2.6,1.8-3.9,2.8s-2.5,2-3.7,3.1c-4.8,4.3-9.2,9-13.4,13.9c-4.2,4.9-8.2,10-12,15.3
			c-1.9,2.6-3.8,5.3-5.6,8s-3.6,5.4-5.3,8.1l-9,14.4l5.9-15.9c2.3-6.3,4.7-12.5,7.1-18.7c1.2-3.1,2.5-6.2,3.7-9.3
			c1.2-3.1,2.5-6.2,3.8-9.3c2.6-6.2,5.3-12.3,8.2-18.3c2.9-6,5.8-12.1,9.1-17.9c3.2-5.9,6.7-11.7,10.7-17.2c1-1.4,2-2.8,3.1-4.1
			l1.6-2l1.7-2c0.6-0.7,1.2-1.3,1.8-1.8l0.9-0.9l0.2-0.2c0.2-0.2,0.2-0.2,0.3-0.3c0.2-0.2,0.4-0.4,0.6-0.5c1.7-1.3,4.1-2.1,6.4-1.7
			c2.3,0.3,4.3,1.5,5.7,3.1s2.4,3.8,2.3,6.1c0,1.1-0.3,2.3-0.7,3.3s-1.2,2.1-1.8,2.7l-3.4,3.7l-13.7,14.6
			c-9.2,9.7-18.5,19.2-27.9,28.7c-4.7,4.7-9.5,9.4-14.3,14.1c-4.8,4.6-9.7,9.2-14.6,13.8c-4.9,4.5-10,9-15.2,13.2
			c-2.6,2.1-5.3,4.2-8,6.2c-1.4,1-2.8,2-4.3,2.9s-3,1.8-4.7,2.5c-0.9,0.4-1.8,0.7-2.9,0.9c-0.3,0-0.6,0.1-0.9,0.1
			c-0.1,0-0.1,0-0.2,0h-0.3c-0.2,0-0.4,0-0.7-0.1h-0.3h-0.2l-0.3-0.1H616c0,0-0.6-0.2-0.4-0.1l-0.2-0.1l-0.4-0.2
			c-1.9-0.8-3.8-2.4-4.8-4.4s-1.3-4.2-1.2-6.1c0.1-1.9,0.5-3.8,1-5.5c1-3.5,2.5-6.6,4.1-9.7c1.6-3,3.4-5.9,5.5-8.8l3.7,3
			c-1.8,1.9-3.6,3.8-5.4,5.6c-1.8,1.8-3.7,3.6-5.6,5.4c-3.8,3.6-7.7,7-11.8,10.2s-8.4,6.3-13.1,8.8c-2.4,1.2-4.9,2.4-7.6,3.1
			c-1.4,0.3-2.8,0.6-4.3,0.6s-3.1-0.3-4.6-0.9c-0.4-0.2-0.8-0.4-1.2-0.6l-0.4-0.3l-0.2-0.1c-0.2-0.1-0.1,0-0.1-0.1l0,0h-0.1
			l-0.1-0.1c-0.7-0.5-1.2-1.1-1.7-1.8c-1-1.4-1.5-3-1.7-4.6c-0.3-3.1,0.4-5.9,1.3-8.5s2.1-5,3.3-7.3c1.3-2.3,2.7-4.5,4.1-6.7
			c2.9-4.3,6.1-8.5,9.3-12.5c1.6-2,3.3-4,5-5.9c1.7-1.9,3.5-3.8,5.3-5.7l0,0l2.2,2.3c-4.6,4.1-9.4,8-14.1,11.9
			c-4.8,3.9-9.5,7.8-14.4,11.5c-4.9,3.8-9.8,7.5-14.8,11c-5,3.6-10.1,7.1-15.3,10.4c-2.6,1.6-5.3,3.2-8,4.7c-2.7,1.5-5.5,2.9-8.5,4
			c-1.5,0.6-3,1.1-4.7,1.4c-0.8,0.1-1.7,0.3-2.6,0.3c-0.4,0-1,0-1.5-0.1c-0.2,0-0.4-0.1-0.6-0.1h-0.1h-0.1c0.1,0-0.1,0-0.1,0l0,0
			l-0.3-0.1c-1.7-0.6-3.3-1.8-4.2-3.4c-1-1.5-1.4-3.2-1.7-4.9c-0.4-3.3,0-6.5,0.5-9.6c0.6-3.1,1.5-6.1,2.5-9c1-2.9,2.2-5.8,3.5-8.6
			C512.7,391.9,514.1,389.1,515.8,386.5z"/>
	</g>
	<g>
		<path d="M445.9,541.2c-2.5-2.6-3.7-6.3-3.2-10c0.5-3.7,2.6-7,5-9.6c2.5-2.7,5.3-4.9,8.4-6.9c3-2,6.2-3.7,9.4-5.2s6.5-3,10.2-3.9
			c1.8-0.4,3.7-0.8,5.8-0.6c1,0.1,2.1,0.3,3.1,0.7c1,0.4,2.1,1.1,2.8,2c1.6,1.8,2.1,4,2.3,6c0.2,2,0,3.9-0.2,5.8
			c-0.6,3.7-1.6,7.2-2.8,10.6c-0.6,1.7-1.3,3.4-1.9,5l-0.5,1.2c-0.1,0.4-0.4,0.9-0.4,1.2c-0.2,0.6-0.3,1.4-0.4,2.1
			c-0.2,2.9,1.1,5.7,3.4,7.6c2.2,1.9,5.3,2.8,8.1,2.2c1.4-0.3,2.7-0.9,3.9-1.9c1.4-1.1,2.7-2.1,4-3.3c2.6-2.3,5.1-4.7,7.4-7.3
			c2.4-2.5,4.7-5.2,7-7.9c2.3-2.7,4.5-5.4,6.6-8.2c2.2-2.8,4.3-5.6,6.4-8.4l0,0l2.2,1.4l-13.4,22.1l-13.3,22.2
			c-8.9,14.7-17.8,29.5-26.8,44.2c-4.5,7.3-9,14.7-13.6,22c-4.5,7.3-9.1,14.6-13.7,21.9l-6.9,10.9l-7,10.9l-7,10.8l-7.1,10.8
			l-0.2,0.3l-0.3,0.2c-4.6,3.5-9.4,6.7-14.6,9.3c-5.2,2.6-10.8,4.6-16.7,5.5s-12.1,0.5-17.9-1.8c-2.9-1.1-5.5-2.7-7.9-4.7
			c-2.3-2-4.4-4.4-6-7c-3.2-5.2-4.7-11.4-4.7-17.4c0-3,0.4-6,1.1-8.9c0.4-1.5,0.8-2.9,1.3-4.3c0.3-0.7,0.5-1.3,0.8-2.1
			c0.3-0.6,0.7-1.5,1-2.1c1.5-2.7,3.4-5,5.2-7.2c1.9-2.2,3.9-4.3,5.9-6.3c4.1-4.1,8.3-7.9,12.6-11.6c8.6-7.4,17.6-14.4,26.6-21.2
			c9.1-6.8,18.3-13.3,27.6-19.7c18.7-12.8,37.7-25,57.1-36.6c9.7-5.8,19.6-11.4,29.5-16.8c10-5.4,20.1-10.5,30.5-15.1
			c5.2-2.3,10.5-4.5,15.9-6.4c2.7-0.9,5.5-1.8,8.3-2.5c0.7-0.2,1.4-0.3,2.2-0.5l2.1-0.4c1.4-0.3,2.8-0.5,4.2-0.8
			c5.6-1,11.3-1.7,17.1-1.9c2.9-0.1,5.8,0,8.8,0.4s6,1.1,8.9,2.7c1.4,0.8,2.8,1.9,3.9,3.4c1.1,1.4,1.8,3.2,2,4.9
			c0.4,3.5-0.6,6.7-2,9.5l-0.3,0.5l-0.2,0.3l-0.1,0.2c-0.1,0.1-0.2,0.4-0.4,0.6c-0.1,0.2-0.3,0.3-0.4,0.5c-0.5,0.6-1,1.2-1.6,1.8
			c-1.1,1.1-2.1,2.1-3.3,3c-2.2,1.9-4.5,3.6-6.8,5.3c-9.2,6.7-18.8,12.8-28.4,18.7l-7.3,4.4c-1.3,0.8-2.9,1.5-4.6,1.8
			c-0.4,0.1-0.8,0.1-1.3,0.2H571h-0.3c-0.2,0-0.5,0-0.7,0c-0.9,0-1.9-0.2-2.9-0.7s-1.9-1.6-2.3-2.6c-0.4-1.1-0.4-2-0.4-2.9
			c0.1-1.8,0.6-3.3,1.1-4.7c1.1-2.8,2.4-5.4,3.9-7.9c2.9-5,6.2-9.6,9.7-14.2c1.7-2.3,3.4-4.5,5.2-6.7l2.7-3.3l1.3-1.6l0.7-0.8
			l0.3-0.4l0.2-0.2l0.1-0.1c0.1-0.1,0,0-0.2,0.4l0.2-0.3c4-5.8,8.2-11.5,13.3-16.5c2.6-2.5,5.4-4.8,8.6-6.6
			c3.1-1.9,6.5-3.3,10.1-4.1c3.5-0.9,7.2-1.2,10.7-1.3c3.5-0.1,7.1-0.1,10.6,0.2c7.1,0.6,14.3,2.2,20.6,6c3.1,1.9,5.9,4.4,8.1,7.4
			c2.2,3,3.8,6.5,4.3,10.1c0.6,3.7,0.2,7.5-0.9,10.9c-1,3.5-2.7,6.7-4.6,9.8c-3.8,6-8.7,11.3-13.9,16c-2.6,2.4-5.3,4.6-8.1,6.8
			c-1.4,1.1-2.9,2.1-4.2,3.1s-2.4,2.2-3.3,3.5c-0.9,1.3-1.7,2.8-2.1,4.3c-0.2,0.7-0.4,1.5-0.3,2c0.1,0.3,0.1,0.4,0.2,0.4
			c0.1,0.1,0.3,0.2,0.6,0.2c0.6,0.1,1.4-0.1,2.2-0.3c0.8-0.2,1.6-0.5,2.3-0.8c1.5-0.6,2.9-1.5,4.4-2.4c5.7-3.8,11.1-8.2,16.5-12.6
			c5.4-4.4,10.8-8.8,16.4-13c5.5-4.2,11.2-8.4,17.2-12c3-1.8,6.1-3.5,9.5-4.6c1.7-0.6,3.4-1,5.3-1.2c0.9-0.1,1.9,0,2.8,0.2
			c1,0.2,2,0.7,2.7,1.5s0.9,1.9,0.9,2.9s-0.1,1.9-0.4,2.8c-0.5,1.8-1.2,3.4-1.9,5c-1.6,3.2-3.4,6.1-5.4,9
			c-3.9,5.8-8.3,11.2-12.8,16.6c-4.5,5.3-9.2,10.5-14,15.6c4.6-5.2,9-10.6,13.4-16c4.3-5.4,8.5-11,12.3-16.8c1.9-2.9,3.7-5.9,5.2-9
			c0.7-1.5,1.4-3.1,1.8-4.8c0.4-1.6,0.5-3.4-0.4-4.4c-0.4-0.5-1.1-0.8-1.8-1c-0.8-0.1-1.6-0.2-2.4-0.1c-1.6,0.1-3.3,0.6-4.9,1.1
			c-3.2,1.2-6.2,2.8-9.2,4.6c-5.9,3.6-11.5,7.8-16.9,12c-5.5,4.3-10.8,8.7-16.2,13.1c-5.4,4.4-10.7,8.9-16.6,12.8
			c-1.5,1-3,1.9-4.7,2.7c-0.8,0.4-1.7,0.7-2.6,0.9c-0.9,0.3-1.8,0.5-3,0.4c-0.6,0-1.2-0.2-1.8-0.7s-0.9-1.2-1-1.8
			c-0.2-1.2,0.1-2.2,0.3-3.1c0.6-1.8,1.3-3.5,2.4-5c1.1-1.5,2.3-2.9,3.8-4.1c1.5-1.1,2.8-2.1,4.2-3.2c2.7-2.1,5.3-4.4,7.9-6.7
			c5-4.7,9.7-9.8,13.3-15.6c1.8-2.9,3.3-5.9,4.2-9.1c0.9-3.2,1.2-6.5,0.7-9.7c-0.5-3.2-1.9-6.2-3.9-8.8c-2-2.7-4.5-4.8-7.3-6.5
			c-5.7-3.4-12.5-4.8-19.3-5.4c-3.4-0.3-6.8-0.3-10.2-0.1c-3.5,0.1-6.7,0.5-10,1.3c-6.5,1.6-12.2,5.3-17,10.1
			c-4.8,4.8-8.9,10.3-12.7,16.1l0.2-0.3c-0.2,0.5-0.4,0.6-0.4,0.6l-0.1,0.1l-0.2,0.2l-0.3,0.4l-0.7,0.8l-1.3,1.6l-2.6,3.3
			c-1.7,2.2-3.4,4.4-5.1,6.7c-3.3,4.5-6.5,9.1-9.3,13.9c-1.4,2.4-2.7,4.8-3.6,7.3c-0.4,1.2-0.8,2.5-0.8,3.5c0,0.5,0,1,0.1,1.3
			c0.1,0.3,0.2,0.4,0.4,0.5c0.5,0.3,1.7,0.3,2.8,0.1c1.1-0.2,2.1-0.7,3.2-1.3l7.2-4.4c9.5-6,19-12.1,28-18.7
			c2.2-1.7,4.4-3.4,6.5-5.2c1-0.9,2-1.8,2.9-2.8c0.4-0.5,0.9-0.9,1.2-1.4c0.1-0.1,0.2-0.2,0.2-0.3c0.1-0.1,0.1-0.1,0.2-0.3l0.1-0.2
			c0-0.1,0,0,0,0l0.1-0.1l0.2-0.4c1.1-2.2,1.8-4.7,1.5-6.8s-1.6-3.8-3.6-4.9c-2.1-1.1-4.6-1.8-7.2-2.1c-2.6-0.3-5.3-0.4-8.1-0.3
			c-5.5,0.2-11,0.9-16.5,1.9c-1.4,0.2-2.7,0.5-4.1,0.8l-2.1,0.4c-0.6,0.1-1.3,0.3-2,0.5c-2.6,0.7-5.3,1.5-7.9,2.4
			c-5.2,1.8-10.4,4-15.5,6.3c-10.2,4.6-20.2,9.7-30.1,15.1c-9.9,5.4-19.6,11-29.3,16.7c-19.3,11.6-38.3,23.7-56.9,36.4
			c-9.3,6.4-18.5,12.9-27.5,19.6c-9,6.7-17.9,13.6-26.4,20.9c-4.2,3.6-8.4,7.4-12.3,11.3c-2,2-3.9,4-5.6,6c-1.8,2.1-3.5,4.2-4.7,6.4
			c-0.3,0.6-0.5,1-0.9,1.7c-0.2,0.5-0.5,1.2-0.7,1.8c-0.5,1.2-0.8,2.5-1.2,3.8c-0.6,2.6-1,5.2-1,7.8c0,5.2,1.3,10.5,4,14.9
			c1.3,2.2,3,4.2,5,5.8s4.2,3,6.6,3.9c4.8,1.9,10.2,2.3,15.4,1.6c5.3-0.8,10.5-2.6,15.4-5s9.5-5.4,14-8.7l-0.5,0.5l7.2-10.7
			l7.1-10.8l7-10.8l7-10.9c4.6-7.2,9.3-14.5,13.8-21.8l13.7-21.8c9.2-14.6,18.2-29.2,27.3-43.9l27-44l2.2,1.4l0,0
			c-1.9,3-3.9,5.9-6,8.8s-4.2,5.8-6.4,8.6c-2.2,2.8-4.5,5.6-6.9,8.2c-2.4,2.7-4.9,5.3-7.6,7.7c-1.3,1.2-2.8,2.4-4.2,3.5
			c-1.6,1.3-3.5,2.2-5.6,2.7c-4.2,0.9-8.6-0.3-11.7-3c-1.6-1.3-2.9-3-3.7-5c-0.9-1.9-1.2-4.1-1.1-6.2c0.1-1.1,0.2-2,0.6-3.1
			c0.2-0.6,0.3-0.9,0.5-1.3l0.5-1.3c0.7-1.6,1.3-3.2,1.9-4.8c1.2-3.2,2.2-6.5,2.8-9.8c0.3-1.6,0.4-3.3,0.3-4.8
			c-0.1-1.5-0.5-2.9-1.3-3.8c-0.7-0.9-2-1.4-3.5-1.6s-3.1,0-4.7,0.4c-3.3,0.7-6.5,2-9.7,3.3c-3.2,1.4-6.4,2.9-9.4,4.6
			c-3,1.7-5.9,3.7-8.3,6.1c-2.5,2.4-4.5,5.2-5.3,8.6C442.9,534.7,443.7,538.4,445.9,541.2z"/>
	</g>
</g>
</svg>
