<svg xmlns="http://www.w3.org/2000/svg" width="201" height="200.996" viewBox="0 0 201 200.996">
  <path id="Icon_awesome-linkedin-in" data-name="Icon awesome-linkedin-in" d="M44.992,201H3.32V66.8H44.992ZM24.133,48.5A24.248,24.248,0,1,1,48.267,24.134,24.337,24.337,0,0,1,24.133,48.5ZM200.955,201H159.373V135.671c0-15.569-.314-35.534-21.666-35.534-21.666,0-24.986,16.915-24.986,34.412V201H71.095V66.8h39.967V85.107h.583c5.563-10.544,19.153-21.67,39.428-21.67,42.174,0,49.927,27.772,49.927,63.844V201Z" transform="translate(0 -0.001)"/>
</svg>
