<svg xmlns="http://www.w3.org/2000/svg" width="203.486" height="198.403" viewBox="0 0 203.486 198.403">
  <path id="Icon_awesome-github" data-name="Icon awesome-github" d="M68.061,160.316c0,.821-.944,1.477-2.133,1.477-1.354.123-2.3-.533-2.3-1.477,0-.821.944-1.477,2.133-1.477C66.995,158.716,68.061,159.372,68.061,160.316ZM55.3,158.47c-.287.82.533,1.764,1.764,2.01a1.924,1.924,0,0,0,2.544-.821c.246-.82-.533-1.764-1.764-2.133A2.106,2.106,0,0,0,55.3,158.47Zm18.133-.7c-1.19.287-2.01,1.067-1.887,2.01.123.821,1.19,1.354,2.421,1.067,1.19-.287,2.01-1.067,1.887-1.887C75.733,158.183,74.625,157.649,73.436,157.772ZM100.431.563C43.528.563,0,43.762,0,100.665c0,45.5,28.636,84.431,69.538,98.133,5.251.944,7.1-2.3,7.1-4.964,0-2.544-.123-16.574-.123-25.19,0,0-28.718,6.154-34.749-12.226,0,0-4.677-11.938-11.405-15.015,0,0-9.395-6.441.656-6.318A21.656,21.656,0,0,1,46.851,145.67c8.985,15.836,24.041,11.282,29.908,8.574.944-6.564,3.61-11.118,6.564-13.826-22.933-2.544-46.072-5.867-46.072-45.333,0-11.282,3.118-16.944,9.682-24.164C45.867,68.255,42.379,57.26,48,43.065,56.574,40.4,76.308,54.142,76.308,54.142a96.919,96.919,0,0,1,51.528,0s19.733-13.785,28.308-11.077c5.621,14.236,2.133,25.19,1.067,27.856,6.564,7.262,10.585,12.923,10.585,24.164,0,39.59-24.164,42.749-47.1,45.333,3.774,3.241,6.974,9.395,6.974,19.036,0,13.826-.123,30.933-.123,34.3,0,2.667,1.887,5.908,7.1,4.964,41.026-13.62,68.841-52.554,68.841-98.051C203.487,43.762,157.333.563,100.431.563ZM39.877,142.06c-.533.41-.41,1.354.287,2.133.656.656,1.6.944,2.133.41.533-.41.41-1.354-.287-2.133C41.354,141.813,40.41,141.526,39.877,142.06Zm-4.431-3.323c-.287.533.123,1.19.944,1.6a1.221,1.221,0,0,0,1.764-.287c.287-.533-.123-1.19-.944-1.6C36.39,138.2,35.733,138.326,35.446,138.737Zm13.292,14.605c-.656.533-.41,1.764.533,2.544.944.944,2.133,1.067,2.667.41.533-.533.287-1.764-.533-2.544C50.5,152.808,49.272,152.685,48.738,153.342Zm-4.677-6.031c-.656.41-.656,1.477,0,2.421s1.764,1.354,2.3.944a1.871,1.871,0,0,0,0-2.544C45.785,147.188,44.718,146.778,44.061,147.311Z" transform="translate(0 -0.563)"/>
</svg>
