<svg xmlns="http://www.w3.org/2000/svg" width="320.613" height="200.996" viewBox="0 0 320.613 200.996">
  <path id="Icon_awesome-behance" data-name="Icon awesome-behance" d="M129.136,95.363c17.7-8.461,26.94-21.263,26.94-41.19,0-39.3-29.278-48.871-63.065-48.871H0V202.568H95.627c35.846,0,69.522-17.2,69.522-57.276,0-24.77-11.745-43.082-36.013-49.929ZM43.361,38.977H84.05c15.641,0,29.724,4.4,29.724,22.543,0,16.754-10.965,23.489-26.439,23.489H43.361V38.977ZM89.727,169.059H43.361V114.733H90.618c19.092,0,31.171,7.96,31.171,28.165,0,19.927-14.416,26.161-32.061,26.161ZM289.276,35.081H209.289V15.655h79.986Zm31.338,98.132c0-42.247-24.714-77.482-69.522-77.482-43.528,0-73.084,32.729-73.084,75.589,0,44.474,28,74.977,73.084,74.977,34.121,0,56.219-15.363,66.85-48.036H283.32c-3.729,12.19-19.092,18.647-31,18.647-22.988,0-35.067-13.47-35.067-36.347h103.03C320.446,138.222,320.613,135.718,320.613,133.213ZM217.3,115.846c1.28-18.758,13.749-30.5,32.562-30.5,19.7,0,29.612,11.578,31.282,30.5Z" transform="translate(0 -5.302)"/>
</svg>
